<svg width="168" height="226" viewBox="0 0 168 226" fill="none" xmlns="http://www.w3.org/2000/svg">
<path d="M102 0.55999C101.827 6.45332 100.7 12.6067 98.62 19.02C96.7133 25.26 93.42 31.5 88.74 37.74C84.06 43.98 77.9067 50.22 70.28 56.46C62.6533 62.7 53.12 68.8533 41.68 74.92C55.2 70.0667 68.1133 65.9067 80.42 62.44C92.7267 58.8 104.253 55.7667 115 53.34C125.747 50.74 135.54 48.66 144.38 47.1C153.393 45.3667 161.193 43.8933 167.78 42.68L122.54 100.92L121.5 100.4C122.367 99.1867 123.667 96.5 125.4 92.34C127.307 88.18 128.693 83.9333 129.56 79.6C130.427 75.0933 130.427 71.1067 129.56 67.64C128.693 64.1733 126.007 62.44 121.5 62.44C113.353 62.44 104.513 65.2133 94.98 70.76C85.4467 76.1333 76.52 83.9333 68.2 94.16C60.0533 104.213 53.2067 116.433 47.66 130.82C42.2867 145.207 39.6 161.24 39.6 178.92C39.6 180.653 39.6867 183.773 39.86 188.28C40.0333 192.787 40.64 197.293 41.68 201.8C42.72 206.307 44.4533 210.38 46.88 214.02C49.3067 217.487 52.7733 219.22 57.28 219.22C62.3067 219.22 68.6333 216.967 76.26 212.46C84.06 207.953 91.9467 202.06 99.92 194.78C108.067 187.327 115.607 178.92 122.54 169.56C129.647 160.2 134.847 150.753 138.14 141.22L139.18 141.74L118.9 212.98C114.22 217.14 107.893 220.347 99.92 222.6C91.9467 224.853 83.7133 225.98 75.22 225.98C65.6867 225.98 56.6733 224.507 48.18 221.56C39.86 218.613 32.58 214.627 26.34 209.6C20.1 204.573 15.16 198.593 11.52 191.66C7.88 184.553 6.06 177.013 6.06 169.04C6.06 161.067 7.79333 153.267 11.26 145.64C14.7267 138.013 19.1467 130.82 24.52 124.06C30.0667 117.127 36.22 110.713 42.98 104.82C49.74 98.7533 56.4133 93.2933 63 88.44C69.76 83.5867 76 79.34 81.72 75.7C87.44 71.8867 92.0333 68.94 95.5 66.86C86.66 71.3667 78.7733 75.6133 71.84 79.6C65.08 83.5867 58.6667 87.2267 52.6 90.52C46.5333 93.8133 40.64 96.6733 34.92 99.1C29.2 101.353 23.0467 103.173 16.46 104.56C12.82 105.253 9.7 104.82 7.1 103.26C4.67333 101.7 2.85333 99.4467 1.64 96.5C0.599999 93.5533 0.166666 90.1733 0.339999 86.36C0.686666 82.5467 1.72667 78.82 3.46 75.18L16.46 48.66L17.24 48.92C14.4667 53.7733 13.6 57.5 14.64 60.1C15.8533 62.5267 17.8467 64.26 20.62 65.3C23.3933 66.34 26.5133 66.9467 29.98 67.12C33.62 67.12 36.48 67.12 38.56 67.12C43.0667 67.12 47.14 66.4267 50.78 65.04C54.5933 63.6533 57.3667 61.92 59.1 59.84C62.5667 55.16 64.3 49.5267 64.3 42.94C64.3 36.18 63.6933 29.68 62.48 23.44L102 0.55999Z" fill="white"/>
</svg>