<?xml version="1.0" encoding="utf-8"?>
<!-- Generator: Adobe Illustrator 27.7.0, SVG Export Plug-In . SVG Version: 6.00 Build 0)  -->
<svg version="1.1" id="Calque_1" xmlns="http://www.w3.org/2000/svg" xmlns:xlink="http://www.w3.org/1999/xlink" x="0px" y="0px"
	 viewBox="0 0 198.4 198.4" style="enable-background:new 0 0 198.4 198.4;" xml:space="preserve">
<style type="text/css">
	.st0{clip-path:url(#SVGID_00000049185742810335272410000005376278443033675184_);}
	.st1{opacity:0.69;}
	.st2{fill:#FFFFFF;}
</style>
<g>
	<defs>
		<path id="SVGID_1_" d="M156,198.4H42.4C19,198.4,0,179.4,0,156V42.4C0,19,19,0,42.4,0H156c23.4,0,42.4,19,42.4,42.4V156
			C198.4,179.4,179.4,198.4,156,198.4z"/>
	</defs>
	<clipPath id="SVGID_00000180324266495905840710000014989398093155132045_">
		<use xlink:href="#SVGID_1_"  style="overflow:visible;"/>
	</clipPath>
	<g style="clip-path:url(#SVGID_00000180324266495905840710000014989398093155132045_);">
		<image style="overflow:visible;" width="751" height="501" xlink:href="F364C55.png"  transform="matrix(1 0 0 1 -266 -195.57)">
		</image>
		<g class="st1">
			<image style="overflow:visible;" width="823" height="573" xlink:href="F364C5B.png"  transform="matrix(1 0 0 1 -302 -231.57)">
			</image>
		</g>
	</g>
</g>
<path class="st2" d="M165.8,165.8c-52.2-52.2-80.4-52.2-132.6,0c52.2-52.2,52.2-80.4,0-132.6c52.2,52.2,80.4,52.2,132.6,0
	C113.6,85.4,113.6,113.6,165.8,165.8z"/>
<path class="st2" d="M99.5,99.5C191.1,191.1,7.9,191.1,99.5,99.5C7.9,191.1,7.9,7.9,99.5,99.5C7.9,7.9,191.1,7.9,99.5,99.5
	C191.1,7.9,191.1,191.1,99.5,99.5z"/>
</svg>
